<?xml version="1.0" encoding="UTF-8" standalone="no"?>
<svg
   xmlns:dc="http://purl.org/dc/elements/1.1/"
   xmlns:cc="http://creativecommons.org/ns#"
   xmlns:rdf="http://www.w3.org/1999/02/22-rdf-syntax-ns#"
   xmlns:svg="http://www.w3.org/2000/svg"
   xmlns="http://www.w3.org/2000/svg"
   xmlns:sodipodi="http://sodipodi.sourceforge.net/DTD/sodipodi-0.dtd"
   xmlns:inkscape="http://www.inkscape.org/namespaces/inkscape"
   width="600"
   height="500"
   id="svg2"
   version="1.1"
   inkscape:version="0.47 r22583"
   sodipodi:docname="Nuvola_apps_important_orange.svg">
  <metadata
     id="metadata48">
    <rdf:RDF>
      <cc:Work
         rdf:about="">
        <dc:format>image/svg+xml</dc:format>
        <dc:type
           rdf:resource="http://purl.org/dc/dcmitype/StillImage" />
        <dc:title></dc:title>
      </cc:Work>
    </rdf:RDF>
  </metadata>
  <sodipodi:namedview
     pagecolor="#ffffff"
     bordercolor="#666666"
     borderopacity="1"
     objecttolerance="10"
     gridtolerance="10"
     guidetolerance="10"
     inkscape:pageopacity="0"
     inkscape:pageshadow="2"
     inkscape:window-width="1280"
     inkscape:window-height="968"
     id="namedview46"
     showgrid="false"
     inkscape:zoom="0.944"
     inkscape:cx="326.82878"
     inkscape:cy="257.32392"
     inkscape:window-x="-4"
     inkscape:window-y="-4"
     inkscape:window-maximized="1"
     inkscape:current-layer="svg2" />
  <defs
     id="defs4">
    <inkscape:perspective
       sodipodi:type="inkscape:persp3d"
       inkscape:vp_x="0 : 250 : 1"
       inkscape:vp_y="0 : 1000 : 0"
       inkscape:vp_z="600 : 250 : 1"
       inkscape:persp3d-origin="300 : 166.66667 : 1"
       id="perspective50" />
    <linearGradient
       x1="187.87357"
       y1="224.6"
       x2="581.837"
       y2="483.1"
       id="g1"
       gradientUnits="userSpaceOnUse"
       gradientTransform="matrix(0.96,0,0,0.96,11.68071,9.787558)">
      <stop
         stop-color="#fcb852"
         offset="0"
         id="stop6" />
      <stop
         stop-color="#f07600"
         offset="1"
         id="stop8" />
    </linearGradient>
    <radialGradient
       cx="295.471"
       cy="186.096"
       r="179.55"
       id="g2"
       gradientUnits="userSpaceOnUse"
       gradientTransform="matrix(0,1.531256,-0.876504,0,462.7486,-245)">
      <stop
         stop-color="#fff"
         offset="0"
         id="stop11" />
      <stop
         stop-color="#fff"
         offset="0.5"
         id="stop13" />
      <stop
         stop-color="#d5d5d5"
         offset="1"
         id="stop15" />
    </radialGradient>
    <linearGradient
       x1="250.4"
       y1="101.536"
       x2="412.0943"
       y2="264.54"
       id="g3"
       gradientUnits="userSpaceOnUse"
       gradientTransform="matrix(0.96,0,0,0.96,11.68071,9.787565)">
      <stop
         stop-color="#ffe6bf"
         offset="0"
         id="stop18" />
      <stop
         stop-color="#fd9807"
         offset="1"
         id="stop20" />
    </linearGradient>
    <linearGradient
       x1="41.195"
       y1="616.477"
       x2="118.93"
       y2="527.56"
       id="g4"
       gradientUnits="userSpaceOnUse"
       gradientTransform="matrix(4.556763,0,0,-4.315033,37.49756,2758.519)">
      <stop
         stop-color="#ff7f03"
         offset="0"
         id="stop23" />
      <stop
         stop-color="#a44900"
         offset="1"
         id="stop25" />
    </linearGradient>
    <linearGradient
       x1="530.81"
       y1="486.631"
       x2="174.805"
       y2="211.23"
       id="g5"
       gradientUnits="userSpaceOnUse"
       gradientTransform="matrix(0.96,0,0,0.96,11.68071,9.787565)">
      <stop
         stop-color="#be5e00"
         offset="0"
         id="stop28" />
      <stop
         stop-color="#ff8b01"
         offset="1"
         id="stop30" />
    </linearGradient>
    <inkscape:perspective
       id="perspective3639"
       inkscape:persp3d-origin="0.5 : 0.33333333 : 1"
       inkscape:vp_z="1 : 0.5 : 1"
       inkscape:vp_y="0 : 1000 : 0"
       inkscape:vp_x="0 : 0.5 : 1"
       sodipodi:type="inkscape:persp3d" />
  </defs>
  <path
     d="M 287.0439,30.68461 C 287.0439,30.68461 26.88238,457.8871 26.88238,457.8871 C 21.89034,466.0472 21.89034,476.1272 26.88238,484.2873 C 31.77841,492.3513 41,497.4394 50.97852,497.4394 L 571.3016,497.4394 C 581.1896,497.4394 590.4057,492.3513 595.3977,484.2873 C 600.2937,476.1272 600.2937,466.0472 595.3977,457.8871 L 335.2362,30.68461 C 330.2442,22.52457 321.0281,17.43654 311.14,17.43654 C 301.252,17.43654 292.0359,22.52457 287.0439,30.68461 z"
     fill-opacity="0.178"
     id="path32" />
  <path
     d="M 275.5863,23.03565 C 275.5863,23.03565 15.42473,450.2381 15.42473,450.2381 C 10.4327,458.3982 10.4327,468.4783 15.42473,476.6383 C 20.32076,484.7024 29.53681,489.7904 39.52087,489.7904 L 559.8439,489.7904 C 569.732,489.7904 578.948,484.7024 583.9401,476.6383 C 588.8361,468.4783 588.8361,458.3982 583.9401,450.2381 L 323.7785,23.03565 C 318.7865,14.8756 309.5705,9.787568 299.6824,9.787568 C 289.7943,9.787568 280.5783,14.8756 275.5863,23.03565 z"
     fill="url(#g4)"
     id="path34" />
  <path
     d="M 299.6824,31.7717 C 298.0504,31.7717 296.5144,32.6357 295.6504,33.97971 L 165.5696,247.581 L 35.48885,461.1822 C 34.62484,462.5262 34.62484,464.2542 35.48885,465.5982 C 36.35285,466.9422 37.88886,467.8062 39.52087,467.8062 L 559.8439,467.8062 C 561.4759,467.8062 563.0119,466.9422 563.876,465.5982 C 564.74,464.2542 564.74,462.5262 563.876,461.1822 L 303.7144,33.97971 C 302.8504,32.6357 301.3144,31.7717 299.6824,31.7717 z"
     fill="url(#g5)"
     id="path36" />
  <path
     d="M 299.6464,31.7717 C 298.0144,31.7717 296.4783,32.6357 295.6143,33.97971 L 165.5336,247.581 L 35.45283,461.1822 C 34.58882,462.5262 34.58882,464.2542 35.45283,465.5982 C 36.31683,466.9422 37.85284,467.8062 39.48485,467.8062 L 559.8079,467.8062 C 561.4399,467.8062 562.9759,466.9422 563.8399,465.5982 C 564.7039,464.2542 564.7039,462.5262 563.8399,461.1822 L 303.6784,33.97971 C 302.8144,32.6357 301.2784,31.7717 299.6464,31.7717 z"
     fill="none"
     stroke="url(#g1)"
     stroke-width="11.52"
     stroke-linejoin="round"
     id="path38" />
  <path
     d="M 299.7514,39.46512 C 298.2057,39.54152 296.7649,40.40413 295.9414,41.68514 L 165.8606,255.2864 L 147.7405,285.0466 C 191.8747,311.5396 243.5133,326.8068 298.7014,326.8068 C 354.6732,326.8068 407.0086,311.1293 451.5523,283.9366 L 304.0114,41.68514 C 303.1474,40.34112 301.6234,39.46512 299.9914,39.46512 C 299.9149,39.46512 299.8274,39.46136 299.7514,39.46512 z"
     fill="url(#g3)"
     stroke-width="10"
     stroke-linejoin="round"
     id="path40" />
  <path
     d="M 286.4344,145.7244 L 129.2814,403.678 C 126.5934,408.1901 126.5934,413.7581 129.2814,418.1741 C 131.9695,422.6861 137.0575,425.4702 142.5295,425.4702 L 456.7395,425.4702 C 462.2115,425.4702 467.2996,422.6861 469.9876,418.1741 C 472.6756,413.6621 472.6756,408.1901 469.9876,403.678 L 312.9306,145.7244 C 310.2426,141.2124 305.1545,138.4284 299.6825,138.4284 C 294.2105,138.4284 289.1224,141.2124 286.4344,145.7244 z"
     fill="url(#g2)"
     id="path42" />
  <g
     id="g2689"
     transform="matrix(0.699457,0,0,0.699457,191.405,211.379)">
    <path
       id="path633"
       d="m 385.98,297.154 -245.615,0.316 c -2.224,-0.2 -3.837,-0.708 -2.993,-3.362 l 90.25,-115.688 c 3.12,-4.423 7.83,-6.815 12.567,-6.679 l 45.352,-0.096 c 7.355,-0.004 10.191,2.125 14.238,7.207 l 88.375,114.12 c 0.809,2.007 0.085,4.014 -2.174,4.182 z" />
    <path
       style="fill:#000002"
       id="rect613"
       d="m 125.665,49.226 35.181,18.466 c 5.479,2.876 7.761,10.037 5.099,15.995 l -41.233,92.255 c -2.664,5.959 -9.265,8.458 -14.744,5.582 L 74.787,163.058 c -5.48,-2.876 -7.763,-10.037 -5.1,-15.995 l 41.235,-92.255 c 2.662,-5.959 9.263,-8.458 14.743,-5.582 z" />
    <path
       id="rect615"
       d="m 71.647,46.625 h 81.178 c 5.197,0 9.41,3.583 9.41,8 v 16.5 c 0,4.419 -4.214,8 -9.41,8 H 71.647 c -5.198,0 -9.412,-3.581 -9.412,-8 v -16.5 c 0,-4.418 4.214,-8 9.412,-8 z" />
    <path
       id="rect616"
       d="M 26.867,118.678 62.324,51.852 c 2.27,-4.279 6.379,-5.715 9.177,-3.206 l 10.45,9.367 c 2.798,2.509 3.227,8.011 0.956,12.291 L 47.45,137.129 c -2.27,4.279 -6.379,5.716 -9.177,3.207 l -10.45,-9.367 c -2.797,-2.509 -3.226,-8.011 -0.956,-12.291 z" />
    <path
       id="rect617"
       d="m 59.08,125.656 210.061,110.75 c 13.451,7.091 23.609,14.378 22.689,16.274 l -3.439,7.083 c -0.92,1.896 -12.57,-2.316 -26.02,-9.407 L 52.31,139.606 C 38.859,132.515 28.701,125.228 29.621,123.332 l 3.439,-7.083 c 0.919,-1.896 12.569,2.315 26.02,9.407 z" />
    <path
       id="rect618"
       d="M 154.473,179.08 148.206,69.709 c -0.401,-7.003 2.244,-12.909 5.907,-13.192 l 13.682,-1.056 c 3.665,-0.283 6.96,5.166 7.361,12.169 l 6.267,109.369 c 0.401,7.003 -2.244,12.909 -5.907,13.192 l -13.682,1.055 c -3.665,0.285 -6.96,-5.163 -7.361,-12.166 z" />
    <ellipse
       d="m 211.35199,31.625 c 0,17.461034 -13.39743,31.615999 -29.924,31.615999 -16.52656,0 -29.924,-14.154965 -29.924,-31.615999 0,-17.461034 13.39744,-31.61599922 29.924,-31.61599922 16.52657,0 29.924,14.15496522 29.924,31.61599922 z"
       id="path619"
       sodipodi:cx="181.42799"
       sodipodi:cy="31.625"
       sodipodi:rx="29.924"
       sodipodi:ry="31.615999"
       cx="181.42799"
       cy="31.625"
       rx="29.924"
       ry="31.615999" />
    <path
       id="rect621"
       d="M 101.8,228.479 86.97,166.867 c -0.949,-3.946 1.674,-7.725 5.86,-8.441 l 15.63,-2.678 c 4.186,-0.716 8.349,1.9 9.299,5.846 l 14.829,61.612 c 0.949,3.946 -1.673,7.725 -5.858,8.441 l -15.632,2.678 c -4.187,0.717 -8.349,-1.901 -9.298,-5.846 z" />
    <path
       id="rect622"
       d="m 102.249,288.088 -0.482,-63.512 c -0.031,-4.066 3.379,-7.098 7.613,-6.771 l 15.816,1.222 c 4.236,0.327 7.694,3.888 7.725,7.955 l 0.48,63.51 c 0.031,4.067 -3.377,7.098 -7.612,6.771 l -15.817,-1.22 c -4.234,-0.326 -7.692,-3.889 -7.723,-7.955 z" />
    <path
       id="rect623"
       d="M 3.303,267.255 66.234,156.703 c 4.029,-7.079 10.177,-10.791 13.73,-8.292 l 13.268,9.335 c 3.552,2.499 3.165,10.265 -0.864,17.343 L 29.436,285.641 c -4.029,7.079 -10.177,10.791 -13.729,8.292 L 2.44,284.598 c -3.553,-2.499 -3.167,-10.265 0.863,-17.343 z" />
  </g>
</svg>
