<?xml version="1.0" encoding="UTF-8" standalone="no"?>
<!-- Created with Inkscape (http://www.inkscape.org/) -->

<svg
   xmlns:dc="http://purl.org/dc/elements/1.1/"
   xmlns:cc="http://creativecommons.org/ns#"
   xmlns:rdf="http://www.w3.org/1999/02/22-rdf-syntax-ns#"
   xmlns:svg="http://www.w3.org/2000/svg"
   xmlns="http://www.w3.org/2000/svg"
   xmlns:xlink="http://www.w3.org/1999/xlink"
   xmlns:sodipodi="http://sodipodi.sourceforge.net/DTD/sodipodi-0.dtd"
   xmlns:inkscape="http://www.inkscape.org/namespaces/inkscape"
   width="16px"
   height="16px"
   id="svg4233"
   version="1.1"
   inkscape:version="0.48.4 r9939"
   sodipodi:docname="RxPY_Icon.svg">
  <defs
     id="defs4235">
    <linearGradient
       id="linearGradient4856">
      <stop
         style="stop-color:#5499ff;stop-opacity:1;"
         offset="0"
         id="stop4858" />
      <stop
         style="stop-color:#306796;stop-opacity:1;"
         offset="1"
         id="stop4860" />
    </linearGradient>
    <linearGradient
       id="linearGradient4848">
      <stop
         style="stop-color:#ffcd13;stop-opacity:1;"
         offset="0"
         id="stop4850" />
      <stop
         style="stop-color:#ffdf53;stop-opacity:1;"
         offset="1"
         id="stop4852" />
    </linearGradient>
    <linearGradient
       inkscape:collect="always"
       xlink:href="#linearGradient4848"
       id="linearGradient4854"
       x1="0"
       y1="7"
       x2="5"
       y2="4"
       gradientUnits="userSpaceOnUse" />
    <linearGradient
       inkscape:collect="always"
       xlink:href="#linearGradient4856"
       id="linearGradient4862"
       x1="5"
       y1="14"
       x2="15"
       y2="6"
       gradientUnits="userSpaceOnUse" />
    <linearGradient
       inkscape:collect="always"
       xlink:href="#linearGradient4856"
       id="linearGradient4893"
       gradientUnits="userSpaceOnUse"
       x1="5"
       y1="14"
       x2="15"
       y2="6" />
    <linearGradient
       inkscape:collect="always"
       xlink:href="#linearGradient4848"
       id="linearGradient4895"
       gradientUnits="userSpaceOnUse"
       x1="0"
       y1="7"
       x2="5"
       y2="4" />
  </defs>
  <sodipodi:namedview
     id="base"
     pagecolor="#ffffff"
     bordercolor="#666666"
     borderopacity="1.0"
     inkscape:pageopacity="0.0"
     inkscape:pageshadow="2"
     inkscape:zoom="22.197802"
     inkscape:cx="8.4230684"
     inkscape:cy="8.5796849"
     inkscape:current-layer="layer1"
     showgrid="true"
     inkscape:grid-bbox="true"
     inkscape:document-units="px"
     inkscape:window-width="1280"
     inkscape:window-height="751"
     inkscape:window-x="0"
     inkscape:window-y="25"
     inkscape:window-maximized="1">
    <inkscape:grid
       type="xygrid"
       id="grid4241" />
  </sodipodi:namedview>
  <metadata
     id="metadata4238">
    <rdf:RDF>
      <cc:Work
         rdf:about="">
        <dc:format>image/svg+xml</dc:format>
        <dc:type
           rdf:resource="http://purl.org/dc/dcmitype/StillImage" />
        <dc:title></dc:title>
      </cc:Work>
    </rdf:RDF>
  </metadata>
  <g
     id="layer1"
     inkscape:label="Layer 1"
     inkscape:groupmode="layer">
    <g
       id="g4887"
       transform="matrix(0.5,-0.8660254,-0.8660254,-0.5,10.935009,18.915256)">
      <path
         id="path4252"
         d="m 14,6 c -1.104569,0 -2,0.8954305 -2,2 0,2.209139 -1.790861,4 -4,4 C 5.790861,12 4,10.209139 4,8 L 0,8 c 0,4.418278 3.581722,8 8,8 4.280003,0 7.754183,-3.367075 7.96875,-7.59375 C 15.995392,8.2760548 16,8.1380712 16,8 16,6.8954305 15.104569,6 14,6 z"
         style="fill:url(#linearGradient4893);fill-opacity:1;stroke:none"
         inkscape:connector-curvature="0" />
      <path
         id="path4273"
         d="M 8,0 C 3.7199971,0 0.24581745,3.367075 0.03125,7.59375 0.02431791,7.7303023 0,7.8617249 0,8 0,9.1045695 0.8954305,10 2,10 3.1045695,10 4,9.1045695 4,8 4,5.790861 5.790861,4 8,4 c 2.209139,0 4,1.790861 4,4 0,-1.1045695 0.895431,-2 2,-2 0.966498,0 1.782257,0.6823837 1.96875,1.59375 C 15.754183,3.367075 12.280003,0 8,0 z"
         style="fill:url(#linearGradient4895);fill-opacity:1;stroke:none"
         inkscape:connector-curvature="0" />
      <path
         d="m 15,8 c 0,0.5522847 -0.447715,1 -1,1 -0.552285,0 -1,-0.4477153 -1,-1 0,-0.5522847 0.447715,-1 1,-1 0.552285,0 1,0.4477153 1,1 z"
         sodipodi:ry="1"
         sodipodi:rx="1"
         sodipodi:cy="8"
         sodipodi:cx="14"
         id="path4866"
         style="fill:#ffffff;fill-opacity:1;stroke:none"
         sodipodi:type="arc" />
      <path
         d="M 3,8 C 3,8.5522847 2.5522847,9 2,9 1.4477153,9 1,8.5522847 1,8 1,7.4477153 1.4477153,7 2,7 2.5522847,7 3,7.4477153 3,8 z"
         sodipodi:ry="1"
         sodipodi:rx="1"
         sodipodi:cy="8"
         sodipodi:cx="2"
         id="path4864"
         style="fill:#ffffff;fill-opacity:1;stroke:none"
         sodipodi:type="arc" />
    </g>
  </g>
</svg>
